<svg shape-rendering="crispEdges" viewBox="0 0 43 43" height="500" width="500" xmlns="http://www.w3.org/2000/svg" data-type="ugc"><path d="M0 0h43v43H0z" fill="#000000"></path><path d="M3 3.5h7m4 0h1m3 0h2m3 0h4m1 0h1m1 0h2m1 0h7M3 4.5h1m5 0h1m1 0h1m1 0h1m1 0h2m2 0h1m3 0h1m3 0h2m2 0h1m1 0h1m5 0h1M3 5.5h1m1 0h3m1 0h1m2 0h1m1 0h1m1 0h2m3 0h3m1 0h1m1 0h1m1 0h3m1 0h1m1 0h3m1 0h1M3 6.5h1m1 0h3m1 0h1m7 0h1m2 0h1m4 0h2m1 0h4m1 0h1m1 0h3m1 0h1M3 7.5h1m1 0h3m1 0h1m2 0h1m1 0h1m4 0h1m2 0h1m2 0h2m1 0h1m1 0h1m2 0h1m1 0h3m1 0h1M3 8.5h1m5 0h1m1 0h1m3 0h1m2 0h1m1 0h2m1 0h1m2 0h4m1 0h1m1 0h1m5 0h1M3 9.5h7m1 0h1m1 0h1m1 0h1m1 0h1m1 0h1m1 0h1m1 0h1m1 0h1m1 0h1m1 0h1m1 0h1m1 0h7M11 10.5h1m2 0h2m3 0h3m2 0h1m4 0h1M7 11.5h4m1 0h2m6 0h1m6 0h4m2 0h2m3 0h1M3 12.5h6m2 0h1m1 0h3m1 0h1m2 0h2m1 0h1m7 0h6m1 0h1M4 13.5h3m2 0h1m1 0h2m4 0h3m8 0h2m1 0h2m1 0h1m1 0h2M3 14.5h1m4 0h1m2 0h1m1 0h1m3 0h2m1 0h1m1 0h4m3 0h1m2 0h1m3 0h2M3 15.5h1m1 0h1m1 0h1m1 0h1m1 0h2m1 0h1m1 0h2m2 0h8m2 0h1m1 0h2m3 0h3M6 16.5h1m1 0h1m6 0h6m3 0h1m4 0h4m2 0h1m1 0h1M5 17.5h2m2 0h2m2 0h1m3 0h2m1 0h2m1 0h6m1 0h2m1 0h1m1 0h3M3 18.5h1m4 0h1m2 0h2m1 0h1m4 0h1m4 0h2m4 0h1m1 0h2m3 0h1M5 19.5h2m1 0h2m1 0h4m1 0h2m1 0h4m3 0h2m4 0h3m1 0h3M3 20.5h1m2 0h1m3 0h1m2 0h2m2 0h1m1 0h1m1 0h1m2 0h2m2 0h1m1 0h2m3 0h2M3 21.5h1m1 0h1m1 0h3m2 0h5m1 0h1m1 0h1m3 0h5m1 0h3m1 0h1m2 0h1M5 22.5h4m2 0h1m3 0h1m2 0h1m2 0h4m4 0h1m3 0h1m1 0h1m1 0h1m1 0h1M3 23.5h2m1 0h1m1 0h2m1 0h3m3 0h4m1 0h2m5 0h2m1 0h2m2 0h2m1 0h1M4 24.5h3m1 0h1m4 0h2m1 0h7m4 0h1m1 0h2m4 0h2m1 0h1M5 25.5h1m2 0h4m1 0h2m1 0h1m2 0h1m1 0h1m1 0h1m1 0h7m1 0h1M4 26.5h1m2 0h1m4 0h1m2 0h3m9 0h2m2 0h4m2 0h1M4 27.5h1m1 0h1m2 0h2m4 0h1m1 0h3m1 0h2m1 0h1m2 0h2m1 0h3m1 0h2m1 0h3M3 28.5h2m5 0h1m1 0h1m1 0h4m1 0h1m1 0h1m2 0h2m2 0h2m3 0h1m2 0h2M7 29.5h1m1 0h1m2 0h2m1 0h1m1 0h2m1 0h2m6 0h3m1 0h1m2 0h1M6 30.5h1m1 0h1m1 0h2m1 0h1m3 0h1m3 0h1m1 0h3m1 0h1m1 0h3m1 0h7M3 31.5h3m2 0h2m5 0h1m2 0h1m1 0h2m1 0h1m2 0h2m3 0h5m3 0h1M11 32.5h6m3 0h1m1 0h1m1 0h1m1 0h1m1 0h4m3 0h2M3 33.5h7m1 0h1m1 0h1m2 0h1m2 0h1m1 0h2m1 0h3m2 0h1m1 0h1m1 0h1m1 0h3M3 34.5h1m5 0h1m1 0h1m3 0h1m1 0h1m1 0h1m1 0h5m1 0h1m1 0h1m1 0h1m3 0h1m1 0h1M3 35.5h1m1 0h3m1 0h1m1 0h2m1 0h1m1 0h1m1 0h1m2 0h2m3 0h1m4 0h7m1 0h1M3 36.5h1m1 0h3m1 0h1m4 0h1m2 0h1m1 0h3m3 0h1m1 0h1m2 0h1m2 0h2M3 37.5h1m1 0h3m1 0h1m2 0h3m1 0h1m1 0h1m1 0h2m2 0h1m1 0h5m2 0h2m3 0h1M3 38.5h1m5 0h1m2 0h1m2 0h1m2 0h5m2 0h2m3 0h1m1 0h1m1 0h1m2 0h2M3 39.5h7m2 0h1m1 0h3m1 0h1m3 0h1m1 0h1m2 0h1m4 0h1m2 0h5" stroke="#8800c1"></path></svg>